<svg xmlns:dc="http://purl.org/dc/elements/1.1/" xmlns:cc="http://creativecommons.org/ns#" xmlns:rdf="http://www.w3.org/1999/02/22-rdf-syntax-ns#" xmlns:svg="http://www.w3.org/2000/svg" xmlns="http://www.w3.org/2000/svg" xmlns:xlink="http://www.w3.org/1999/xlink" id="svg608683" viewBox="0 0 1024 768" height="512px" width="1024px" version="1.1">
  <metadata id="metadata608689">
    <rdf:rdf>
      <cc:work rdf:about="">
        <dc:format>image/svg+xml</dc:format>
        <dc:type rdf:resource="http://purl.org/dc/dcmitype/StillImage"></dc:type>
      </cc:work>
    </rdf:rdf>
  </metadata>
  <defs id="defs608687"></defs>
  <linearGradient spreadMethod="pad" y2="30%" x2="-10%" y1="120%" x1="30%" id="3d_gradient2-logo-48a6f2a7-b1ec-4e01-81bc-1dfa37ff3c96">
    <stop id="stop608664" stop-opacity="1" stop-color="#ffffff" offset="0%"></stop>
    <stop id="stop608666" stop-opacity="1" stop-color="#000000" offset="100%"></stop>
  </linearGradient>
  <linearGradient gradientTransform="rotate(-30)" spreadMethod="pad" y2="30%" x2="-10%" y1="120%" x1="30%" id="3d_gradient3-logo-48a6f2a7-b1ec-4e01-81bc-1dfa37ff3c96">
    <stop id="stop608669" stop-opacity="1" stop-color="#ffffff" offset="0%"></stop>
    <stop id="stop608671" stop-opacity="1" stop-color="#cccccc" offset="50%"></stop>
    <stop id="stop608673" stop-opacity="1" stop-color="#000000" offset="100%"></stop>
  </linearGradient>
  <g id="logo-group">
    <image xlink:href="" id="container" x="272" y="144" width="480" height="480" transform="translate(0 0)" style="display: none;"></image>
    <g id="logo-center" transform="translate(1.1368683772161603e-13 0)">
      <image xlink:href="" id="icon_container" x="0" y="0" style="display: none;"></image>
      <g id="slogan" style="font-style:normal;font-weight:700;font-size:32px;line-height:1;font-family:Caveat;font-variant-ligatures:none;text-align:center;text-anchor:middle" transform="translate(0 0)"></g>
      <g id="title" style="font-style:normal;font-weight:normal;font-size:72px;line-height:1;font-family:Pacifico;font-variant-ligatures:none;text-align:center;text-anchor:middle" transform="translate(0 0)">
        <path id="path608692" style="font-style:normal;font-weight:normal;font-size:72px;line-height:1;font-family:Pacifico;font-variant-ligatures:none;text-align:center;text-anchor:middle" d="m 413.28969,0.36 q -6.408,0 -11.592,-2.88 -5.112,-2.88 -8.136,-8.424 -3.024,-5.616 -3.024,-13.392 0,-10.944 3.96,-19.296 4.032,-8.352 10.872,-12.888 6.912,-4.536 15.264,-4.536 6.408,0 11.52,2.88 5.184,2.88 8.208,8.496 3.024,5.544 3.024,13.32 0,10.944 -4.032,19.296 -3.96,8.352 -10.872,12.888 -6.84,4.536 -15.192,4.536 z m 0.72,-8.496 q 5.616,0 9.864,-3.456 4.32,-3.456 6.624,-9.576 2.304,-6.192 2.304,-13.968 0,-8.568 -3.6,-12.96 -3.6,-4.464 -9.288,-4.464 -5.544,0 -9.792,3.456 -4.248,3.384 -6.624,9.576 -2.376,6.12 -2.376,13.968 0,8.568 3.6,13.032 3.6,4.392 9.288,4.392 z" stroke-width="0" stroke-linejoin="miter" stroke-miterlimit="2" fill="#25b6be" stroke="#25b6be" transform="translate(0 389.575) translate(30.560468749999984 -111.27999999999997) scale(3.75) translate(-390.53769 61.056)"></path>
        <path id="path608694" style="font-style:normal;font-weight:normal;font-size:72px;line-height:1;font-family:Pacifico;font-variant-ligatures:none;text-align:center;text-anchor:middle" d="m 452.57581,0.36 q -2.736,0 -3.888,-2.88 -1.08,-2.88 -1.08,-9.216 0,-9.36 2.664,-17.784 0.648,-2.088 2.088,-3.024 1.512,-1.008 4.176,-1.008 1.44,0 2.016,0.36 0.576,0.36 0.576,1.368 0,1.152 -1.08,5.184 -0.72,2.88 -1.152,5.04 -0.432,2.16 -0.72,5.328 2.376,-6.192 5.328,-10.08 2.952,-3.888 5.76,-5.544 2.88,-1.656 5.256,-1.656 4.68,0 4.68,4.68 0,0.936 -0.648,4.536 -0.576,2.88 -0.576,3.6 0,2.52 1.8,2.52 2.016,0 5.184,-3.168 0.936,-0.936 1.944,-0.936 0.936,0 1.44,0.864 0.576,0.792 0.576,2.16 0,2.664 -1.44,4.176 -2.016,2.088 -4.752,3.6 -2.664,1.44 -5.688,1.44 -3.816,0 -5.832,-1.944 -1.944,-1.944 -1.944,-5.256 0,-1.08 0.216,-2.16 0.144,-1.44 0.144,-1.944 0,-1.152 -0.792,-1.152 -1.08,0 -2.88,2.448 -1.728,2.376 -3.456,6.336 -1.728,3.96 -2.808,8.352 -0.792,3.384 -1.872,4.608 -1.008,1.152 -3.24,1.152 z" stroke-width="0" stroke-linejoin="miter" stroke-miterlimit="2" fill="#487eaa" stroke="#487eaa" transform="translate(0 389.575) translate(244.57341874999986 -8.139999999999986) scale(3.75) translate(-447.60781 33.552)"></path>
        <path id="path608696" style="font-style:normal;font-weight:normal;font-size:72px;line-height:1;font-family:Pacifico;font-variant-ligatures:none;text-align:center;text-anchor:middle" d="m 514.45081,-16.056 q 0.936,0 1.44,0.864 0.576,0.864 0.576,2.376 0,2.88 -1.368,4.464 -3.096,3.816 -6.768,6.264 -3.672,2.448 -8.424,2.448 -14.688,0 -14.688,-20.664 0,-3.168 0.216,-6.408 h -2.808 q -2.16,0 -2.952,-0.792 -0.72,-0.792 -0.72,-2.52 0,-4.032 3.24,-4.032 h 4.104 q 1.224,-7.92 3.744,-14.472 2.52,-6.552 6.048,-10.44 3.6,-3.888 7.704,-3.888 3.024,0 4.752,2.664 1.728,2.664 1.728,6.696 0,11.16 -9.36,19.44 h 8.064 q 1.152,0 1.656,0.504 0.504,0.504 0.504,1.872 0,4.968 -8.136,4.968 h -8.784 q -0.144,3.6 -0.144,5.616 0,7.488 1.728,10.512 1.8,3.024 5.616,3.024 3.096,0 5.472,-1.872 2.376,-1.872 5.616,-5.616 0.864,-1.008 1.944,-1.008 z m -12.6,-39.888 q -1.08,0 -2.448,2.736 -1.296,2.664 -2.52,7.488 -1.152,4.752 -1.944,10.584 4.248,-3.672 6.336,-8.208 2.16,-4.608 2.16,-8.352 0,-4.248 -1.584,-4.248 z" stroke-width="0" stroke-linejoin="miter" stroke-miterlimit="2" fill="#5891b4" stroke="#5891b4" transform="translate(0 389.575) translate(362.1246687499999 -118.03) scale(3.75) translate(-478.95481 62.856)"></path>
        <path id="path608698" style="font-style:normal;font-weight:normal;font-size:72px;line-height:1;font-family:Pacifico;font-variant-ligatures:none;text-align:center;text-anchor:middle" d="m 550.56444,-16.056 q 0.936,0 1.44,0.864 0.576,0.864 0.576,2.376 0,2.88 -1.368,4.464 -3.312,3.816 -6.84,6.264 -3.456,2.448 -7.92,2.448 -3.672,0 -5.544,-2.088 -1.872,-2.16 -1.872,-6.192 0,-2.016 1.008,-7.2 0.936,-4.536 0.936,-6.264 0,-1.152 -0.792,-1.152 -0.936,0 -2.664,2.448 -1.728,2.376 -3.456,6.336 -1.728,3.96 -2.808,8.352 -1.368,5.76 -6.768,5.76 -2.16,0 -2.88,-1.512 -0.648,-1.584 -0.648,-5.616 0,-2.304 0.072,-3.672 l 0.072,-5.76 q 0,-11.088 2.232,-23.112 2.304,-12.024 6.696,-20.16 4.464,-8.208 10.656,-8.208 3.312,0 5.328,2.88 2.088,2.808 2.088,7.344 0,7.272 -4.248,15.12 -4.248,7.776 -13.824,18.216 -0.216,3.744 -0.216,7.704 2.376,-6.12 5.256,-9.936 2.952,-3.888 5.76,-5.544 2.88,-1.656 5.256,-1.656 4.68,0 4.68,4.68 0,2.808 -1.584,10.152 -1.368,6.264 -1.368,8.28 0,2.88 2.088,2.88 1.44,0 3.384,-1.728 2.016,-1.8 5.328,-5.76 0.864,-1.008 1.944,-1.008 z m -21.384,-44.496 q -1.296,0 -2.88,3.744 -1.584,3.672 -3.096,10.008 -1.44,6.264 -2.376,13.68 4.464,-5.256 7.344,-11.448 2.952,-6.192 2.952,-11.232 0,-2.304 -0.504,-3.528 -0.504,-1.224 -1.44,-1.224 z" stroke-width="0" stroke-linejoin="miter" stroke-miterlimit="2" fill="#68a5bf" stroke="#68a5bf" transform="translate(0 389.575) translate(482.16078124999996 -136.12) scale(3.75) translate(-510.96444 67.68)"></path>
        <path id="path608700" style="font-style:normal;font-weight:normal;font-size:72px;line-height:1;font-family:Pacifico;font-variant-ligatures:none;text-align:center;text-anchor:middle" d="m 578.85706,-16.056 q 0.936,0 1.44,0.864 0.576,0.864 0.576,2.376 0,2.88 -1.368,4.464 -2.664,3.24 -7.56,5.976 -4.824,2.736 -10.368,2.736 -7.56,0 -11.736,-4.104 -4.176,-4.104 -4.176,-11.232 0,-4.968 2.088,-9.216 2.088,-4.32 5.76,-6.84 3.744,-2.52 8.424,-2.52 4.176,0 6.696,2.52 2.52,2.448 2.52,6.696 0,4.968 -3.6,8.568 -3.528,3.528 -12.024,5.616 1.8,3.312 6.84,3.312 3.24,0 7.344,-2.232 4.176,-2.304 7.2,-5.976 0.864,-1.008 1.944,-1.008 z m -18.144,-10.44 q -2.664,0 -4.536,3.096 -1.8,3.096 -1.8,7.488 v 0.144 q 4.248,-1.008 6.696,-3.024 2.448,-2.016 2.448,-4.68 0,-1.368 -0.792,-2.16 -0.72,-0.864 -2.016,-0.864 z" stroke-width="0" stroke-linejoin="miter" stroke-miterlimit="2" fill="#78b8ca" stroke="#78b8ca" transform="translate(0 389.575) translate(612.2881062499998 -8.139999999999986) scale(3.75) translate(-545.66506 33.552)"></path>
        <path id="path608702" style="font-style:normal;font-weight:normal;font-size:72px;line-height:1;font-family:Pacifico;font-variant-ligatures:none;text-align:center;text-anchor:middle" d="m 580.12269,0.36 q -2.736,0 -3.888,-2.88 -1.08,-2.88 -1.08,-9.216 0,-9.36 2.664,-17.784 0.648,-2.088 2.088,-3.024 1.512,-1.008 4.176,-1.008 1.44,0 2.016,0.36 0.576,0.36 0.576,1.368 0,1.152 -1.08,5.184 -0.72,2.88 -1.152,5.04 -0.432,2.16 -0.72,5.328 2.376,-6.192 5.328,-10.08 2.952,-3.888 5.76,-5.544 2.88,-1.656 5.256,-1.656 4.68,0 4.68,4.68 0,2.808 -1.584,10.152 -1.368,6.264 -1.368,8.28 0,2.88 2.088,2.88 1.44,0 3.384,-1.728 2.016,-1.8 5.328,-5.76 0.864,-1.008 1.944,-1.008 0.936,0 1.44,0.864 0.576,0.864 0.576,2.376 0,2.88 -1.368,4.464 -3.096,3.816 -6.696,6.264 -3.528,2.448 -8.064,2.448 -3.672,0 -5.544,-2.088 -1.872,-2.16 -1.872,-6.192 0,-2.016 1.008,-7.2 0.936,-4.536 0.936,-6.264 0,-1.152 -0.792,-1.152 -0.936,0 -2.664,2.448 -1.656,2.376 -3.456,6.336 -1.728,3.96 -2.808,8.352 -0.792,3.384 -1.872,4.608 -1.008,1.152 -3.24,1.152 z" stroke-width="0" stroke-linejoin="miter" stroke-miterlimit="2" fill="#88cbd4" stroke="#88cbd4" transform="translate(0 389.575) translate(722.8742187499996 -8.139999999999986) scale(3.75) translate(-575.15469 33.552)"></path>
        <path id="path608704" style="font-style:normal;font-weight:normal;font-size:72px;line-height:1;font-family:Pacifico;font-variant-ligatures:none;text-align:center;text-anchor:middle" d="m 624.12144,1.944 q -3.744,0 -5.76,-1.728 -1.944,-1.728 -1.944,-3.888 0,-1.872 1.368,-3.24 1.368,-1.368 4.032,-1.368 0.936,0 2.16,0.216 1.296,0.144 1.944,0.216 -0.072,-1.872 -0.864,-3.528 -0.72,-1.656 -1.872,-3.168 -1.152,-1.584 -2.16,-2.736 -2.232,4.248 -4.464,7.056 -2.16,2.808 -4.752,5.328 -1.296,1.296 -2.736,1.296 -1.152,0 -1.872,-0.792 -0.72,-0.864 -0.72,-2.088 0,-1.44 1.008,-2.664 l 0.936,-1.152 q 3.96,-4.896 5.976,-8.064 1.224,-2.088 2.88,-5.544 1.656,-3.528 3.24,-7.272 1.368,-3.168 5.688,-3.168 2.016,0 2.808,0.36 0.792,0.36 0.792,1.152 0,0.432 -0.288,1.368 -0.288,0.936 -0.792,1.872 -1.296,2.592 -1.296,4.392 0,1.08 0.72,2.376 0.792,1.296 2.376,3.24 2.304,3.024 3.456,5.184 1.224,2.088 1.224,4.608 0,0.72 -0.144,2.016 3.528,-1.368 8.28,-7.272 0.864,-1.008 1.944,-1.008 0.936,0 1.44,0.864 0.576,0.864 0.576,2.376 0,2.736 -1.368,4.464 -3.6,4.464 -6.912,6.12 -3.24,1.584 -8.064,1.728 -2.88,2.448 -6.84,2.448 z" stroke-width="0" stroke-linejoin="miter" stroke-miterlimit="2" fill="#98dedf" stroke="#98dedf" transform="translate(0 389.575) translate(840.3495312499999 -11.109999999999985) scale(3.75) translate(-606.48144 34.344)"></path>
      </g>
      <image xlink:href="" id="icon" x="0" y="0" style="display: none;"></image>
    </g>
  </g>
</svg>
