<svg width="16" height="17" viewBox="0 0 16 17" fill="none" xmlns="http://www.w3.org/2000/svg">
<path fill-rule="evenodd" clip-rule="evenodd" d="M7.97475 12.5C11.3887 12.5 14.2337 8.95736 14.2337 8.95736C14.3408 8.83033 14.4 8.66589 14.4 8.49547C14.4 8.32505 14.3408 8.16061 14.2337 8.03358C14.2337 8.03358 11.5409 4.5 8.0032 4.5C4.46547 4.5 1.76558 8.03358 1.76558 8.03358C1.65888 8.1614 1.59998 8.32624 1.59998 8.49698C1.59998 8.66773 1.65888 8.83256 1.76558 8.96038C1.76558 8.96038 4.55366 12.5 7.97475 12.5ZM8.0032 10.8019C8.43249 10.8031 8.85246 10.6691 9.20995 10.4169C9.56743 10.1647 9.84636 9.80559 10.0114 9.38509C10.1765 8.96458 10.2203 8.50156 10.1372 8.05464C10.0541 7.60772 9.84798 7.197 9.54483 6.87447C9.24168 6.55194 8.85515 6.3321 8.4342 6.24279C8.01324 6.15349 7.57677 6.19872 7.18006 6.37276C6.78334 6.54681 6.4442 6.84184 6.20558 7.22051C5.96697 7.59919 5.83959 8.04447 5.83959 8.5C5.83922 8.80189 5.89488 9.10091 6.00341 9.37997C6.11194 9.65903 6.27121 9.91268 6.47212 10.1264C6.67303 10.3402 6.91165 10.5098 7.17435 10.6257C7.43705 10.7416 7.7187 10.8015 8.0032 10.8019Z" stroke="currentcolor" stroke-miterlimit="10"/>
</svg>
