<svg width="61" height="50" viewBox="0 0 61 50" fill="none" xmlns="http://www.w3.org/2000/svg">
<path d="M18.2246 9.51018C18.2246 8.34783 19.1676 7.40479 20.33 7.40479H22.4354V10.9138C22.4354 11.2998 22.7512 11.6156 23.1372 11.6156H24.5407C24.9267 11.6156 25.2425 11.2998 25.2425 10.9138V7.40479H27.3479C28.5103 7.40479 29.4533 8.34783 29.4533 9.51018V15.1246C29.4533 16.2869 28.5103 17.23 27.3479 17.23H20.33C19.1676 17.23 18.2246 16.2869 18.2246 15.1246V9.51018ZM13.312 20.0371H15.4174V23.5461C15.4174 23.9321 15.7332 24.2479 16.1192 24.2479H17.5228C17.9087 24.2479 18.2246 23.9321 18.2246 23.5461V20.0371H20.33C21.4923 20.0371 22.4354 20.9802 22.4354 22.1425V27.7569C22.4354 28.9193 21.4923 29.8623 20.33 29.8623H13.312C12.1496 29.8623 11.2066 28.9193 11.2066 27.7569V22.1425C11.2066 20.9802 12.1496 20.0371 13.312 20.0371ZM27.3479 20.0371H29.4533V23.5461C29.4533 23.9321 29.7691 24.2479 30.1551 24.2479H31.5587C31.9447 24.2479 32.2605 23.9321 32.2605 23.5461V20.0371H34.3659C35.5283 20.0371 36.4713 20.9802 36.4713 22.1425V27.7569C36.4713 28.9193 35.5283 29.8623 34.3659 29.8623H27.3479C26.1856 29.8623 25.2425 28.9193 25.2425 27.7569V22.1425C25.2425 20.9802 26.1856 20.0371 27.3479 20.0371Z" fill="currentColor"/>
<path d="M34.3659 7.40479C33.2036 7.40479 32.2605 8.34783 32.2605 9.51018V15.1246C32.2605 16.2869 33.2036 17.23 34.3659 17.23H41.3839C42.5462 17.23 43.4893 16.2869 43.4893 15.1246V9.51018C43.4893 8.34783 42.5462 7.40479 41.3839 7.40479H39.2785V10.9138C39.2785 11.2998 38.9627 11.6156 38.5767 11.6156H37.1731C36.7871 11.6156 36.4713 11.2998 36.4713 10.9138V7.40479H34.3659Z" fill="currentColor"/>
<path d="M43.4893 20.0371H41.3839C40.2215 20.0371 39.2785 20.9802 39.2785 22.1425V27.7569C39.2785 28.9193 40.2215 29.8623 41.3839 29.8623H48.4019C49.5642 29.8623 50.5073 28.9193 50.5073 27.7569V22.1425C50.5073 20.9802 49.5642 20.0371 48.4019 20.0371H46.2965V23.5461C46.2965 23.9321 45.9807 24.2479 45.5947 24.2479H44.1911C43.8051 24.2479 43.4893 23.9321 43.4893 23.5461V20.0371Z" fill="currentColor"/>
<path d="M20.3303 32.7696C19.168 32.7696 18.2249 33.7127 18.2249 34.875V40.4894C18.2249 41.6517 19.168 42.5948 20.3303 42.5948H27.3483C28.5107 42.5948 29.4537 41.6517 29.4537 40.4894V34.875C29.4537 33.7127 28.5107 32.7696 27.3483 32.7696H25.2429V36.2786C25.2429 36.6646 24.9271 36.9804 24.5411 36.9804H23.1375C22.7515 36.9804 22.4357 36.6646 22.4357 36.2786V32.7696H20.3303Z" fill="currentColor"/>
<path d="M6.31291 32.7696C5.15056 32.7696 4.20752 33.7127 4.20752 34.875V40.4894C4.20752 41.6517 5.15056 42.5948 6.31291 42.5948H13.3309C14.4932 42.5948 15.4363 41.6517 15.4363 40.4894V34.875C15.4363 33.7127 14.4932 32.7696 13.3309 32.7696H11.2255V36.2786C11.2255 36.6646 10.9097 36.9804 10.5237 36.9804H9.1201C8.73412 36.9804 8.4183 36.6646 8.4183 36.2786V32.7696H6.31291Z" fill="currentColor"/>
<path d="M48.3833 32.7696C47.221 32.7696 46.2779 33.7127 46.2779 34.875V40.4894C46.2779 41.6517 47.221 42.5948 48.3833 42.5948H55.4013C56.5636 42.5948 57.5067 41.6517 57.5067 40.4894V34.875C57.5067 33.7127 56.5636 32.7696 55.4013 32.7696H53.2959V36.2786C53.2959 36.6646 52.9801 36.9804 52.5941 36.9804H51.1905C50.8045 36.9804 50.4887 36.6646 50.4887 36.2786V32.7696H48.3833Z" fill="currentColor"/>
<path d="M34.3659 32.7696C33.2036 32.7696 32.2605 33.7127 32.2605 34.875V40.4894C32.2605 41.6517 33.2036 42.5948 34.3659 42.5948H41.3839C42.5462 42.5948 43.4893 41.6517 43.4893 40.4894V34.875C43.4893 33.7127 42.5462 32.7696 41.3839 32.7696H39.2785V36.2786C39.2785 36.6646 38.9627 36.9804 38.5767 36.9804H37.1731C36.7871 36.9804 36.4713 36.6646 36.4713 36.2786V32.7696H34.3659Z" fill="currentColor"/>
</svg>
