<svg width="61" height="50" viewBox="0 0 61 50" fill="none" xmlns="http://www.w3.org/2000/svg">
<path d="M18.2834 16.1907C18.2834 15.0732 19.19 14.1665 20.3076 14.1665H22.3318V17.5402C22.3318 17.9113 22.6355 18.215 23.0066 18.215H24.3561C24.7272 18.215 25.0308 17.9113 25.0308 17.5402V14.1665H27.055C28.1726 14.1665 29.0793 15.0732 29.0793 16.1907V21.5887C29.0793 22.7062 28.1726 23.6129 27.055 23.6129H20.3076C19.19 23.6129 18.2834 22.7062 18.2834 21.5887V16.1907ZM13.5601 26.3119H15.5844V29.6856C15.5844 30.0567 15.888 30.3604 16.2591 30.3604H17.6086C17.9797 30.3604 18.2834 30.0567 18.2834 29.6856V26.3119H20.3076C21.4251 26.3119 22.3318 27.2186 22.3318 28.3361V33.7341C22.3318 34.8516 21.4251 35.7583 20.3076 35.7583H13.5601C12.4426 35.7583 11.5359 34.8516 11.5359 33.7341V28.3361C11.5359 27.2186 12.4426 26.3119 13.5601 26.3119ZM27.055 26.3119H29.0793V29.6856C29.0793 30.0567 29.3829 30.3604 29.754 30.3604H31.1035C31.4746 30.3604 31.7782 30.0567 31.7782 29.6856V26.3119H33.8025C34.92 26.3119 35.8267 27.2186 35.8267 28.3361V33.7341C35.8267 34.8516 34.92 35.7583 33.8025 35.7583H27.055C25.9375 35.7583 25.0308 34.8516 25.0308 33.7341V28.3361C25.0308 27.2186 25.9375 26.3119 27.055 26.3119Z" fill="currentColor"/>
<path d="M33.8025 14.1665C32.6849 14.1665 31.7782 15.0732 31.7782 16.1907V21.5887C31.7782 22.7062 32.6849 23.6129 33.8025 23.6129H40.5499C41.6675 23.6129 42.5742 22.7062 42.5742 21.5887V16.1907C42.5742 15.0732 41.6675 14.1665 40.5499 14.1665H38.5257V17.5402C38.5257 17.9113 38.2221 18.215 37.8509 18.215H36.5015C36.1304 18.215 35.8267 17.9113 35.8267 17.5402V14.1665H33.8025Z" fill="currentColor"/>
<path d="M42.5742 26.3119H40.5499C39.4324 26.3119 38.5257 27.2186 38.5257 28.3361V33.7341C38.5257 34.8516 39.4324 35.7583 40.5499 35.7583H47.2974C48.4149 35.7583 49.3216 34.8516 49.3216 33.7341V28.3361C49.3216 27.2186 48.4149 26.3119 47.2974 26.3119H45.2731V29.6856C45.2731 30.0567 44.9695 30.3604 44.5984 30.3604H43.2489C42.8778 30.3604 42.5742 30.0567 42.5742 29.6856V26.3119Z" fill="currentColor"/>
<path d="M27.055 2C25.9375 2 25.0308 2.90669 25.0308 4.02423V9.42219C25.0308 10.5397 25.9375 11.4464 27.055 11.4464H33.8025C34.92 11.4464 35.8267 10.5397 35.8267 9.42219V4.02423C35.8267 2.90669 34.92 2 33.8025 2H31.7782V5.37372C31.7782 5.74483 31.4746 6.04847 31.1035 6.04847H29.754C29.3829 6.04847 29.0793 5.74483 29.0793 5.37372V2H27.055Z" fill="currentColor"/>
<path d="M20.3079 38.5536C19.1904 38.5536 18.2837 39.4603 18.2837 40.5778V45.9758C18.2837 47.0933 19.1904 48 20.3079 48H27.0554C28.1729 48 29.0796 47.0933 29.0796 45.9758V40.5778C29.0796 39.4603 28.1729 38.5536 27.0554 38.5536H25.0312V41.9273C25.0312 42.2984 24.7275 42.602 24.3564 42.602H23.0069C22.6358 42.602 22.3322 42.2984 22.3322 41.9273V38.5536H20.3079Z" fill="currentColor"/>
<path d="M6.83087 38.5536C5.71333 38.5536 4.80664 39.4603 4.80664 40.5778V45.9758C4.80664 47.0933 5.71333 48 6.83087 48H13.5783C14.6959 48 15.6026 47.0933 15.6026 45.9758V40.5778C15.6026 39.4603 14.6959 38.5536 13.5783 38.5536H11.5541V41.9273C11.5541 42.2984 11.2505 42.602 10.8793 42.602H9.52985C9.15874 42.602 8.85511 42.2984 8.85511 41.9273V38.5536H6.83087Z" fill="currentColor"/>
<path d="M47.2795 38.5536C46.162 38.5536 45.2553 39.4603 45.2553 40.5778V45.9758C45.2553 47.0933 46.162 48 47.2795 48H54.027C55.1445 48 56.0512 47.0933 56.0512 45.9758V40.5778C56.0512 39.4603 55.1445 38.5536 54.027 38.5536H52.0028V41.9273C52.0028 42.2984 51.6991 42.602 51.328 42.602H49.9785C49.6074 42.602 49.3038 42.2984 49.3038 41.9273V38.5536H47.2795Z" fill="currentColor"/>
<path d="M33.8025 38.5536C32.6849 38.5536 31.7782 39.4603 31.7782 40.5778V45.9758C31.7782 47.0933 32.6849 48 33.8025 48H40.5499C41.6675 48 42.5742 47.0933 42.5742 45.9758V40.5778C42.5742 39.4603 41.6675 38.5536 40.5499 38.5536H38.5257V41.9273C38.5257 42.2984 38.2221 42.602 37.851 42.602H36.5015C36.1304 42.602 35.8267 42.2984 35.8267 41.9273V38.5536H33.8025Z" fill="currentColor"/>
</svg>
