<svg width="61" height="50" viewBox="0 0 61 50" fill="none" xmlns="http://www.w3.org/2000/svg">
<path d="M17.4285 22.1542C17.4285 20.9711 18.3883 20.0113 19.5714 20.0113H21.7142V23.5827C21.7142 23.9756 22.0356 24.297 22.4285 24.297H23.8571C24.2499 24.297 24.5714 23.9756 24.5714 23.5827V20.0113H26.7142C27.8973 20.0113 28.8571 20.9711 28.8571 22.1542V27.8684C28.8571 29.0515 27.8973 30.0113 26.7142 30.0113H19.5714C18.3883 30.0113 17.4285 29.0515 17.4285 27.8684V22.1542ZM12.4285 32.8685H14.5714V36.4399C14.5714 36.8327 14.8928 37.1542 15.2856 37.1542H16.7142C17.1071 37.1542 17.4285 36.8327 17.4285 36.4399V32.8685H19.5714C20.7544 32.8685 21.7142 33.8283 21.7142 35.0113V40.7256C21.7142 41.9086 20.7544 42.8685 19.5714 42.8685H12.4285C11.2455 42.8685 10.2856 41.9086 10.2856 40.7256V35.0113C10.2856 33.8283 11.2455 32.8685 12.4285 32.8685ZM26.7142 32.8685H28.8571V36.4399C28.8571 36.8327 29.1785 37.1542 29.5714 37.1542H30.9999C31.3928 37.1542 31.7142 36.8327 31.7142 36.4399V32.8685H33.8571C35.0401 32.8685 35.9999 33.8283 35.9999 35.0113V40.7256C35.9999 41.9086 35.0401 42.8685 33.8571 42.8685H26.7142C25.5312 42.8685 24.5714 41.9086 24.5714 40.7256V35.0113C24.5714 33.8283 25.5312 32.8685 26.7142 32.8685Z" fill="currentColor"/>
<path d="M33.8571 20.0113C32.674 20.0113 31.7142 20.9711 31.7142 22.1542V27.8684C31.7142 29.0515 32.674 30.0113 33.8571 30.0113H40.9999C42.183 30.0113 43.1428 29.0515 43.1428 27.8684V22.1542C43.1428 20.9711 42.183 20.0113 40.9999 20.0113H38.8571V23.5827C38.8571 23.9756 38.5356 24.297 38.1428 24.297H36.7142C36.3214 24.297 35.9999 23.9756 35.9999 23.5827V20.0113H33.8571Z" fill="currentColor"/>
<path d="M43.1428 32.8685H40.9999C39.8169 32.8685 38.8571 33.8283 38.8571 35.0113V40.7256C38.8571 41.9086 39.8169 42.8685 40.9999 42.8685H48.1428C49.3258 42.8685 50.2856 41.9086 50.2856 40.7256V35.0113C50.2856 33.8283 49.3258 32.8685 48.1428 32.8685H45.9999V36.4399C45.9999 36.8327 45.6785 37.1542 45.2856 37.1542H43.8571C43.4642 37.1542 43.1428 36.8327 43.1428 36.4399V32.8685Z" fill="currentColor"/>
<path d="M26.7142 7.13184C25.5312 7.13184 24.5714 8.09166 24.5714 9.27469V14.989C24.5714 16.172 25.5312 17.1318 26.7142 17.1318H33.8571C35.0401 17.1318 35.9999 16.172 35.9999 14.989V9.27469C35.9999 8.09166 35.0401 7.13184 33.8571 7.13184H31.7142V10.7033C31.7142 11.0961 31.3928 11.4176 30.9999 11.4176H29.5714C29.1785 11.4176 28.8571 11.0961 28.8571 10.7033V7.13184H26.7142Z" fill="currentColor"/>
</svg>
