<svg width="61" height="50" viewBox="0 0 61 50" fill="none" xmlns="http://www.w3.org/2000/svg">
<path d="M16.8929 15.0179C16.8929 13.7462 17.9247 12.7144 19.1965 12.7144H21.5001V16.5536C21.5001 16.976 21.8456 17.3215 22.2679 17.3215H23.8036C24.226 17.3215 24.5715 16.976 24.5715 16.5536V12.7144H26.8751C28.1468 12.7144 29.1786 13.7462 29.1786 15.0179V21.1608C29.1786 22.4325 28.1468 23.4644 26.8751 23.4644H19.1965C17.9247 23.4644 16.8929 22.4325 16.8929 21.1608V15.0179ZM11.5179 26.5358H13.8215V30.3751C13.8215 30.7974 14.167 31.1429 14.5894 31.1429H16.1251C16.5474 31.1429 16.8929 30.7974 16.8929 30.3751V26.5358H19.1965C20.4683 26.5358 21.5001 27.5676 21.5001 28.8394V34.9822C21.5001 36.254 20.4683 37.2858 19.1965 37.2858H11.5179C10.2462 37.2858 9.21436 36.254 9.21436 34.9822V28.8394C9.21436 27.5676 10.2462 26.5358 11.5179 26.5358ZM26.8751 26.5358H29.1786V30.3751C29.1786 30.7974 29.5242 31.1429 29.9465 31.1429H31.4822C31.9045 31.1429 32.2501 30.7974 32.2501 30.3751V26.5358H34.5536C35.8254 26.5358 36.8572 27.5676 36.8572 28.8394V34.9822C36.8572 36.254 35.8254 37.2858 34.5536 37.2858H26.8751C25.6033 37.2858 24.5715 36.254 24.5715 34.9822V28.8394C24.5715 27.5676 25.6033 26.5358 26.8751 26.5358Z" fill="currentColor"/>
<path d="M34.5536 12.7144C33.2819 12.7144 32.2501 13.7462 32.2501 15.0179V21.1608C32.2501 22.4325 33.2819 23.4644 34.5536 23.4644H42.2322C43.504 23.4644 44.5358 22.4325 44.5358 21.1608V15.0179C44.5358 13.7462 43.504 12.7144 42.2322 12.7144H39.9286V16.5536C39.9286 16.976 39.5831 17.3215 39.1608 17.3215H37.6251C37.2027 17.3215 36.8572 16.976 36.8572 16.5536V12.7144H34.5536Z" fill="currentColor"/>
<path d="M44.5358 26.5358H42.2322C40.9604 26.5358 39.9286 27.5676 39.9286 28.8394V34.9822C39.9286 36.254 40.9604 37.2858 42.2322 37.2858H49.9108C51.1825 37.2858 52.2144 36.254 52.2144 34.9822V28.8394C52.2144 27.5676 51.1825 26.5358 49.9108 26.5358H47.6072V30.3751C47.6072 30.7974 47.2617 31.1429 46.8394 31.1429H45.3036C44.8813 31.1429 44.5358 30.7974 44.5358 30.3751V26.5358Z" fill="currentColor"/>
</svg>
