<svg width="61" height="50" viewBox="0 0 61 50" fill="none" xmlns="http://www.w3.org/2000/svg">
<path d="M19.238 18.3887H16.4046C14.8404 18.3887 13.5713 19.6578 13.5713 21.222V28.7776C13.5713 30.3418 14.8404 31.6109 16.4046 31.6109H25.8491C27.4133 31.6109 28.6824 30.3418 28.6824 28.7776V21.222C28.6824 19.6578 27.4133 18.3887 25.8491 18.3887H23.0157V23.1109C23.0157 23.6303 22.5907 24.0553 22.0713 24.0553H20.1824C19.663 24.0553 19.238 23.6303 19.238 23.1109V18.3887Z" fill="currentColor"/>
<path d="M38.1268 18.3887H35.2935C33.7293 18.3887 32.4602 19.6578 32.4602 21.222V28.7776C32.4602 30.3418 33.7293 31.6109 35.2935 31.6109H44.738C46.3022 31.6109 47.5713 30.3418 47.5713 28.7776V21.222C47.5713 19.6578 46.3022 18.3887 44.738 18.3887H41.9046V23.1109C41.9046 23.6303 41.4796 24.0553 40.9602 24.0553H39.0713C38.5518 24.0553 38.1268 23.6303 38.1268 23.1109V18.3887Z" fill="currentColor"/>
</svg>
