<svg width="61" height="50" viewBox="0 0 61 50" fill="none" xmlns="http://www.w3.org/2000/svg">
<path d="M23.4764 14.1665C23.4764 12.7863 24.5962 11.6665 25.9764 11.6665H28.4764V15.8332C28.4764 16.2915 28.8514 16.6665 29.3097 16.6665H30.9764C31.4347 16.6665 31.8097 16.2915 31.8097 15.8332V11.6665H34.3097C35.6899 11.6665 36.8097 12.7863 36.8097 14.1665V20.8332C36.8097 22.2134 35.6899 23.3332 34.3097 23.3332H25.9764C24.5962 23.3332 23.4764 22.2134 23.4764 20.8332V14.1665ZM17.6431 26.6665H20.1431V30.8332C20.1431 31.2915 20.5181 31.6665 20.9764 31.6665H22.6431C23.1014 31.6665 23.4764 31.2915 23.4764 30.8332V26.6665H25.9764C27.3566 26.6665 28.4764 27.7863 28.4764 29.1665V35.8332C28.4764 37.2134 27.3566 38.3332 25.9764 38.3332H17.6431C16.2629 38.3332 15.1431 37.2134 15.1431 35.8332V29.1665C15.1431 27.7863 16.2629 26.6665 17.6431 26.6665ZM34.3097 26.6665H36.8097V30.8332C36.8097 31.2915 37.1847 31.6665 37.6431 31.6665H39.3097C39.7681 31.6665 40.1431 31.2915 40.1431 30.8332V26.6665H42.6431C44.0233 26.6665 45.1431 27.7863 45.1431 29.1665V35.8332C45.1431 37.2134 44.0233 38.3332 42.6431 38.3332H34.3097C32.9295 38.3332 31.8097 37.2134 31.8097 35.8332V29.1665C31.8097 27.7863 32.9295 26.6665 34.3097 26.6665Z" fill="currentColor"/>
</svg>
